# xmcd CD database file
#
# Track frame offsets:
#	150
#	12482
#	29108
#	46763
#	62382
#	87259
#	102638
#	118786
#	144274
#	168271
#	191365
#	205767
#
# Disc length: 2925 seconds
#
# Revision: 1
# Processed by: cddbd v1.5.2PL0 Copyright (c) Steve Scherf et al.
# Submitted via: CDex 1.75
#
DISCID=9e0b6b0c
DTITLE=SWING HOLIC - VOL.02
DYEAR=2008
DGENRE=Jazz
TTITLE0=Drinkin' And Dreamin'
TTITLE1=SA.KU.RA.
TTITLE2=Boogie Woogie Wonder Cat
TTITLE3=Half and Half
TTITLE4=Just make your life alive
TTITLE5=Friday Night Phantasy
TTITLE6=Border of life
TTITLE7=#800080
TTITLE8=Fun with music
TTITLE9=Deeper and Deeper
TTITLE10=Twilight Rendezvous
TTITLE11=Noisy Jazzy Happy Ensemble
EXTD=YEAR: 2008
EXTT0=
EXTT1=
EXTT2=
EXTT3=
EXTT4=
EXTT5=
EXTT6=
EXTT7=
EXTT8=
EXTT9=
EXTT10=
EXTT11=
PLAYORDER=
